<?xml version="1.0" standalone="no"?>
<!DOCTYPE svg PUBLIC "-//W3C//DTD SVG 20010904//EN"
 "http://www.w3.org/TR/2001/REC-SVG-20010904/DTD/svg10.dtd">
<svg version="1.0" xmlns="http://www.w3.org/2000/svg"
 width="1280.000000pt" height="688.000000pt" viewBox="0 0 1280.000000 688.000000"
 preserveAspectRatio="xMidYMid meet">
<g transform="translate(0.000000,688.000000) scale(0.100000,-0.100000)"
fill="#d6e27a" stroke="none">
<path d="M3290 6870 c-8 -5 -29 -10 -46 -10 -68 0 -95 -12 -112 -46 -15 -31
-19 -34 -63 -34 -28 0 -51 -6 -58 -14 -7 -8 -26 -17 -42 -20 -16 -3 -42 -9
-59 -12 -36 -7 -38 -23 -6 -53 21 -20 29 -22 54 -13 21 7 37 6 61 -4 52 -22
132 -18 197 11 66 29 77 30 95 9 12 -14 10 -19 -14 -39 -49 -38 -149 -67 -218
-64 -42 3 -64 0 -66 -8 -6 -16 68 -53 105 -53 16 0 36 -7 43 -16 11 -14 10
-19 -10 -35 -26 -22 -63 -24 -125 -8 -36 9 -49 19 -75 59 -17 26 -31 52 -31
56 0 5 -19 17 -43 27 -23 11 -57 25 -75 33 -31 14 -33 13 -41 -9 -6 -16 -20
-26 -40 -30 -22 -5 -31 -12 -31 -26 0 -20 9 -25 71 -35 21 -4 42 -13 49 -21
10 -12 7 -17 -14 -27 -41 -18 -29 -42 23 -46 33 -3 52 2 73 18 19 14 37 20 51
16 33 -9 117 -74 117 -90 0 -26 -40 -30 -71 -7 -15 12 -30 21 -32 21 -2 0 -3
-15 -3 -34 l1 -33 122 -12 c73 -6 131 -7 145 -2 22 9 22 9 3 16 -55 19 -66 26
-63 43 2 13 17 18 58 23 51 5 106 26 139 53 11 9 8 12 -20 16 -53 8 -50 36 5
60 25 10 46 24 46 30 0 13 41 13 74 0 22 -8 35 -4 87 30 33 21 65 41 72 43 8
3 6 10 -7 19 -18 14 -18 15 2 34 11 11 62 35 112 53 50 19 94 39 97 44 13 21
-31 37 -102 37 -58 0 -72 3 -82 19 -11 17 -28 20 -150 24 -76 3 -149 8 -163
11 -14 4 -32 2 -40 -4z"/>
<path d="M4639 6856 c-26 -30 -42 -32 -94 -10 -24 10 -51 13 -72 9 -36 -6 -41
-16 -18 -35 21 -18 19 -37 -7 -51 -15 -8 -53 -10 -120 -5 -98 6 -98 6 -110
-19 -12 -27 -37 -32 -56 -13 -10 10 -17 10 -32 0 -11 -6 -47 -12 -80 -12 -43
0 -60 -4 -59 -12 4 -30 -3 -38 -30 -38 -16 0 -31 6 -35 15 -8 21 -26 19 -26
-3 0 -28 -29 -48 -90 -62 -30 -7 -68 -18 -85 -25 l-30 -14 48 0 c38 -1 47 -4
47 -18 0 -30 -36 -79 -66 -90 -63 -23 -101 -33 -121 -33 -11 0 -35 -5 -53 -12
-30 -10 -32 -12 -14 -19 10 -4 41 -8 67 -8 111 -2 119 -53 12 -76 l-30 -7 29
-25 c23 -20 36 -23 62 -18 50 9 276 24 289 18 10 -4 78 -96 130 -176 14 -21
27 -48 31 -62 5 -21 8 -22 26 -12 16 10 22 8 39 -13 20 -23 21 -53 5 -90 -4
-10 4 -21 24 -32 34 -19 41 -57 15 -78 -11 -9 -13 -16 -5 -24 13 -13 13 -46 0
-46 -6 0 -6 -7 2 -19 9 -15 6 -27 -15 -66 -15 -26 -27 -49 -27 -52 0 -2 11 -8
25 -13 20 -8 25 -16 25 -44 0 -26 12 -51 48 -98 39 -52 55 -66 96 -79 27 -9
55 -24 62 -34 12 -16 15 -15 43 6 23 17 31 31 31 53 0 52 33 127 77 176 44 49
82 71 151 90 38 10 46 17 64 56 11 25 27 48 36 51 9 4 30 15 45 26 21 14 55
22 130 28 135 10 267 59 161 59 -68 0 -79 14 -52 59 12 20 27 39 32 43 23 16
61 7 83 -19 17 -21 22 -24 23 -11 0 28 -48 58 -96 58 -44 0 -61 12 -56 41 2 9
-4 22 -13 29 -8 7 -15 21 -15 31 0 15 8 19 39 19 31 0 41 4 46 20 8 26 50 26
93 0 36 -22 46 -25 37 -10 -10 17 15 40 42 40 35 0 25 21 -21 44 -30 14 -37
23 -32 39 3 13 -2 26 -12 34 -16 12 -15 14 7 33 13 11 31 20 42 20 16 0 17 2
3 28 -23 45 -18 79 15 96 36 19 47 53 20 61 -24 8 -25 41 -1 53 9 5 39 12 65
16 27 3 60 15 73 25 14 11 38 23 54 26 52 11 34 27 -22 21 -29 -3 -93 -9 -143
-14 -49 -5 -98 -12 -107 -16 -11 -5 -21 -1 -30 13 -11 18 -23 21 -88 21 -60 0
-95 -7 -175 -35 -115 -40 -155 -44 -155 -16 0 32 190 108 300 118 l65 6 -32
14 c-18 7 -33 20 -33 28 0 20 -54 20 -204 -1 -93 -13 -120 -13 -132 -4 -13 11
-13 15 2 31 10 11 15 21 13 23 -2 3 -39 8 -81 12 -73 6 -77 6 -99 -20z m485
-851 c3 -9 -1 -18 -10 -22 -19 -7 -39 11 -30 26 10 16 33 13 40 -4z"/>
<path d="M8120 6690 c0 -5 7 -10 15 -10 8 0 15 5 15 10 0 6 -7 10 -15 10 -8 0
-15 -4 -15 -10z"/>
<path d="M8015 6670 c-3 -5 3 -10 14 -10 11 0 23 5 26 10 3 6 -3 10 -14 10
-11 0 -23 -4 -26 -10z"/>
<path d="M8345 6650 c-3 -5 -1 -10 4 -10 6 0 11 5 11 10 0 6 -2 10 -4 10 -3 0
-8 -4 -11 -10z"/>
<path d="M9393 6643 c-13 -8 -23 -19 -23 -24 0 -10 90 -12 115 -3 14 6 14 8
-1 25 -21 23 -61 24 -91 2z"/>
<path d="M7712 6638 c-9 -9 -8 -16 5 -30 17 -19 49 -26 38 -8 -3 5 -1 19 5 30
9 17 8 20 -13 20 -12 0 -28 -5 -35 -12z"/>
<path d="M7832 6637 c-7 -8 -6 -18 3 -31 13 -17 15 -17 37 -2 28 20 57 21 64
1 7 -17 40 -20 50 -4 11 18 -13 33 -55 33 -22 1 -43 4 -47 9 -11 11 -40 8 -52
-6z"/>
<path d="M8220 6635 c-20 -24 -6 -28 15 -5 10 11 13 20 8 20 -6 0 -16 -7 -23
-15z"/>
<path d="M8092 6622 c4 -21 38 -29 38 -9 0 8 -9 17 -21 20 -15 4 -19 1 -17
-11z"/>
<path d="M8015 6600 c-3 -5 1 -10 9 -10 8 0 18 5 21 10 3 6 -1 10 -9 10 -8 0
-18 -4 -21 -10z"/>
<path d="M6862 6570 c-18 -24 -19 -29 -6 -34 31 -12 78 -5 112 16 35 22 35 22
11 28 -78 21 -96 19 -117 -10z"/>
<path d="M6752 6571 c2 -10 15 -17 37 -19 44 -4 38 20 -8 29 -26 6 -31 4 -29
-10z"/>
<path d="M7210 6580 c0 -5 7 -10 16 -10 8 0 12 5 9 10 -3 6 -10 10 -16 10 -5
0 -9 -4 -9 -10z"/>
<path d="M9348 6573 c7 -3 16 -2 19 1 4 3 -2 6 -13 5 -11 0 -14 -3 -6 -6z"/>
<path d="M9425 6564 c-22 -8 -41 -14 -42 -14 -2 0 -3 -4 -3 -9 0 -5 24 -15 53
-22 28 -6 66 -18 84 -26 54 -22 63 -18 63 27 0 46 -5 48 -36 19 l-22 -21 -17
25 c-22 34 -34 37 -80 21z"/>
<path d="M6519 6558 c-1 -2 -3 -12 -4 -23 -2 -11 -6 -28 -10 -37 -5 -13 0 -21
20 -30 22 -10 31 -9 55 5 56 34 112 10 69 -29 -13 -12 -16 -21 -9 -28 14 -14
13 -22 -6 -41 -13 -12 -14 -19 -4 -30 21 -26 37 -17 68 39 17 29 42 63 57 74
l26 20 -23 16 c-12 9 -31 16 -41 16 -10 0 -31 10 -47 21 l-28 22 -31 -22 c-39
-28 -76 -25 -75 7 0 17 -11 31 -17 20z"/>
<path d="M2349 6506 c6 -7 26 -16 43 -20 17 -3 47 -18 65 -32 38 -29 56 -25
29 5 -36 40 -169 85 -137 47z"/>
<path d="M9659 6479 c-44 -47 -38 -48 95 -12 19 5 19 6 -3 24 -33 27 -59 24
-92 -12z"/>
<path d="M2130 6440 c0 -5 5 -10 10 -10 6 0 10 5 10 10 0 6 -4 10 -10 10 -5 0
-10 -4 -10 -10z"/>
<path d="M6850 6410 c0 -5 9 -10 21 -10 11 0 17 5 14 10 -3 6 -13 10 -21 10
-8 0 -14 -4 -14 -10z"/>
<path d="M2080 6400 c-8 -5 -12 -11 -9 -14 3 -3 14 1 25 9 21 16 8 20 -16 5z"/>
<path d="M9707 6373 c-8 -10 -17 -34 -19 -53 -3 -33 -5 -35 -43 -38 -22 -2
-62 -10 -88 -18 -29 -10 -61 -14 -80 -10 -18 4 -75 -1 -127 -10 -227 -39 -234
-41 -212 -71 37 -53 22 -73 -45 -62 -27 4 -72 8 -100 8 -46 1 -53 -2 -53 -18
0 -11 15 -28 35 -40 66 -39 88 -141 30 -141 -19 0 -26 7 -31 28 -10 48 -13 51
-50 67 -62 26 -126 15 -89 -15 8 -7 15 -21 15 -31 0 -15 -7 -19 -32 -19 -23 0
-40 10 -69 40 -21 22 -40 40 -43 40 -3 0 -10 -9 -16 -19 -7 -14 -6 -35 2 -70
10 -47 13 -50 53 -60 43 -11 105 -67 105 -95 0 -8 7 -19 15 -26 36 -30 -1 -61
-41 -35 -13 9 -32 32 -42 53 -24 52 -42 51 -74 -6 -38 -68 -85 -112 -120 -112
-35 0 -83 24 -91 44 -10 25 29 40 65 25 25 -10 31 -10 39 2 18 30 31 124 24
179 -4 30 -8 80 -9 110 l-1 55 -35 3 c-32 3 -38 -1 -57 -35 -12 -21 -33 -49
-47 -62 -14 -14 -26 -28 -26 -32 0 -4 18 -29 41 -55 42 -48 46 -69 17 -88 -14
-8 -30 -4 -73 18 -34 17 -79 30 -113 33 -53 5 -59 3 -91 -26 -37 -33 -60 -38
-89 -20 -14 9 -27 7 -60 -10 -50 -25 -88 -27 -100 -4 -9 15 -12 15 -51 0 -23
-10 -50 -17 -60 -17 -10 0 -43 -18 -75 -40 -63 -44 -94 -50 -120 -21 -15 16
-15 20 -2 33 16 17 4 38 -21 38 -11 0 -12 -12 -7 -50 8 -61 -5 -80 -53 -80
-46 0 -67 -12 -92 -56 -19 -31 -26 -36 -51 -32 -23 4 -30 0 -32 -16 -5 -33
-58 -33 -96 -1 -17 14 -34 36 -38 48 -3 12 -17 37 -31 55 -25 33 -25 62 -1 62
7 0 42 -9 77 -20 74 -23 140 -19 166 10 15 17 14 20 -17 43 -18 14 -65 40
-103 57 -39 17 -83 38 -98 46 -16 7 -56 14 -90 14 -69 0 -93 10 -84 34 9 23
-23 36 -77 32 -26 -2 -49 1 -52 5 -9 16 -39 10 -57 -11 -9 -11 -29 -20 -46
-20 -16 0 -34 -6 -40 -14 -6 -7 -41 -22 -76 -32 -56 -16 -65 -22 -65 -42 0
-15 -11 -29 -35 -43 -19 -12 -35 -27 -35 -33 0 -7 -22 -27 -50 -45 -27 -18
-50 -39 -50 -47 0 -8 -12 -20 -27 -26 -16 -7 -30 -13 -31 -14 -2 -2 1 -18 8
-38 8 -25 8 -41 0 -55 -15 -30 -46 -44 -68 -32 -16 8 -29 1 -71 -38 l-53 -49
9 -78 c8 -79 8 -79 38 -82 22 -2 43 6 73 28 23 16 44 30 47 30 8 0 51 -92 70
-148 19 -59 17 -58 98 -30 33 11 37 17 37 46 0 38 15 71 42 90 22 16 23 50 3
76 -38 51 -7 141 64 184 37 23 50 38 59 70 7 23 22 48 35 57 52 36 133 1 110
-48 -6 -12 -35 -49 -65 -81 -50 -56 -53 -63 -51 -109 2 -73 16 -82 90 -63 84
22 145 21 174 -3 22 -18 23 -21 7 -37 -11 -11 -43 -19 -98 -25 -46 -4 -88 -13
-93 -18 -8 -8 -6 -21 5 -45 28 -57 -3 -106 -43 -70 -28 25 -49 11 -49 -35 0
-63 -67 -121 -115 -99 -17 8 -36 3 -91 -22 -68 -31 -69 -31 -85 -11 -13 16
-24 18 -58 14 -35 -5 -46 -2 -66 17 l-25 23 0 -24 c0 -30 -17 -49 -43 -49 -41
0 -112 -40 -127 -73 -8 -18 -28 -38 -45 -46 -16 -8 -49 -31 -73 -52 -24 -21
-57 -41 -73 -44 -16 -4 -34 -15 -39 -26 -7 -12 -21 -19 -41 -19 l-30 0 35 -34
c65 -61 85 -149 45 -200 l-21 -27 -114 7 -114 7 0 -57 c0 -32 -5 -77 -11 -102
-15 -60 -2 -89 51 -110 22 -9 40 -20 40 -25 0 -14 28 -11 94 12 68 24 106 58
106 95 0 26 23 52 79 87 21 14 38 36 47 61 16 48 27 56 84 56 25 0 56 7 70 15
51 29 75 20 147 -56 38 -39 81 -78 98 -86 16 -9 40 -25 53 -36 20 -18 24 -19
32 -7 15 23 13 26 -40 64 -47 34 -76 70 -113 143 -16 31 -16 33 6 59 20 23 25
24 38 13 8 -8 58 -54 113 -104 77 -70 104 -102 123 -144 31 -71 48 -89 76 -84
19 4 23 10 20 31 -3 23 2 30 32 45 20 9 55 17 78 17 54 0 67 13 67 67 0 69 68
183 125 210 31 15 36 15 60 -1 18 -12 24 -23 20 -36 -4 -13 1 -22 15 -30 27
-15 35 -8 21 18 -9 17 -7 24 15 41 28 22 85 37 109 27 18 -6 20 -39 4 -68 -9
-18 -2 -28 60 -87 39 -36 71 -74 71 -83 0 -10 -10 -26 -22 -38 -29 -27 -109
-27 -183 1 -36 13 -70 19 -93 16 -53 -7 -134 -37 -158 -58 -11 -11 -30 -19
-42 -19 -18 0 -22 -6 -22 -34 0 -53 18 -93 48 -105 15 -5 79 -9 145 -7 140 3
139 4 108 -116 -37 -145 -73 -189 -136 -168 -19 6 -54 8 -83 4 -42 -5 -68 0
-161 31 -61 20 -119 34 -130 30 -10 -3 -24 -19 -31 -35 -30 -72 -60 -74 -171
-9 -37 21 -90 49 -116 60 -78 33 -86 44 -78 110 8 68 -10 95 -57 85 -15 -3
-65 -8 -111 -12 -50 -3 -126 -19 -197 -41 -86 -26 -127 -34 -162 -31 -43 5
-49 2 -64 -21 -9 -14 -36 -45 -60 -67 -38 -37 -44 -47 -44 -84 0 -56 -25 -105
-73 -143 -22 -18 -58 -59 -80 -92 -22 -33 -51 -73 -66 -88 -25 -27 -26 -33
-32 -190 -3 -103 -10 -172 -19 -189 -13 -27 -10 -33 58 -132 39 -57 75 -121
81 -142 7 -25 27 -55 53 -80 78 -74 85 -76 211 -68 69 4 144 16 195 30 112 33
133 31 178 -11 31 -30 44 -35 84 -35 74 0 80 -12 80 -166 l0 -130 40 -53 c22
-29 40 -58 40 -65 0 -6 13 -38 29 -71 45 -92 50 -179 16 -274 -41 -116 -42
-153 -6 -243 16 -42 37 -118 46 -170 18 -109 41 -179 101 -301 46 -95 52 -124
32 -146 -18 -18 25 -51 66 -51 62 0 218 31 257 50 43 22 119 117 150 187 11
23 24 65 29 95 8 43 17 60 48 88 22 19 42 43 45 53 4 10 1 51 -5 92 l-12 75
30 31 c16 17 53 49 82 71 83 62 94 86 89 193 -2 50 -9 100 -15 112 -6 11 -18
54 -27 96 -13 66 -14 81 -1 116 27 78 81 156 172 246 50 50 106 112 124 138
55 83 140 281 125 295 -2 2 -46 -4 -98 -13 -81 -16 -97 -16 -122 -4 -25 12
-96 105 -182 237 -15 24 -40 58 -55 76 -20 25 -29 48 -34 92 -6 68 -51 180
-106 272 -47 77 -58 119 -34 128 9 3 22 1 29 -4 7 -6 23 -9 35 -6 17 5 27 -3
51 -41 17 -27 38 -71 47 -99 10 -28 30 -63 45 -77 17 -15 30 -41 34 -65 12
-71 24 -99 70 -154 33 -41 47 -68 55 -110 6 -30 14 -71 18 -90 5 -26 13 -36
29 -38 12 -2 95 34 194 84 154 78 181 95 241 156 37 38 68 76 68 84 0 8 7 25
16 38 15 24 14 25 -30 55 -25 17 -53 45 -63 61 l-17 30 -26 -25 c-32 -31 -96
-58 -120 -50 -10 3 -23 18 -29 33 -6 15 -36 72 -65 127 -30 55 -55 103 -55
107 -1 4 10 15 24 24 37 24 68 11 110 -46 45 -61 85 -84 146 -82 40 1 51 -4
72 -28 30 -33 49 -37 200 -49 102 -7 110 -10 140 -39 18 -17 49 -38 70 -47 43
-18 55 -38 37 -60 -10 -12 -9 -16 6 -22 12 -4 22 0 32 15 8 12 21 22 28 22 16
0 21 -20 29 -123 5 -72 37 -198 55 -222 4 -5 13 -28 20 -50 19 -59 81 -185 92
-185 20 0 49 93 58 187 8 93 10 99 42 127 70 61 127 117 180 175 46 51 65 64
109 77 96 28 95 28 155 -60 49 -71 54 -84 54 -132 0 -61 13 -69 57 -34 46 36
49 31 84 -127 l23 -102 18 30 c15 24 24 29 56 29 38 0 82 -22 82 -41 0 -6 13
-27 29 -47 16 -20 31 -45 33 -56 2 -16 13 -10 66 35 l63 53 -7 60 c-8 87 -19
115 -69 186 -25 35 -45 73 -45 84 0 24 77 106 100 106 9 0 21 -5 27 -11 8 -8
17 -7 34 4 13 8 56 25 94 37 137 42 181 76 246 190 14 25 34 59 45 77 18 31
18 32 0 52 -15 17 -16 23 -6 36 10 12 9 16 -4 21 -20 8 -20 23 0 45 14 15 12
21 -15 67 -39 63 -39 83 3 126 l34 34 -40 6 c-50 8 -75 21 -88 46 -9 16 -4 26
24 58 59 65 146 92 146 44 0 -15 6 -17 35 -14 50 6 89 -21 82 -56 -4 -20 1
-34 20 -54 17 -17 27 -42 30 -72 3 -25 7 -46 9 -46 2 0 15 5 29 12 32 14 32
37 0 118 -14 35 -25 71 -25 80 0 10 36 56 81 104 80 85 81 86 120 80 37 -6 42
-4 81 37 56 59 132 178 158 246 11 31 23 90 27 132 5 67 3 78 -14 93 -15 14
-26 16 -53 8 -28 -8 -39 -6 -76 18 -27 17 -43 35 -44 47 0 11 26 44 63 78 137
130 247 198 286 177 26 -13 104 -13 135 1 20 9 38 8 84 -5 77 -21 91 -20 101
7 19 50 134 127 189 127 34 0 55 -20 46 -44 -10 -27 61 19 74 48 13 28 49 43
65 27 18 -18 -20 -79 -73 -119 -25 -19 -86 -73 -136 -121 -91 -85 -92 -87 -99
-144 -7 -51 7 -165 22 -190 8 -13 89 76 97 106 4 16 19 36 36 45 19 11 31 27
35 49 3 18 13 36 21 41 12 7 13 16 4 59 -9 39 -8 57 1 75 18 36 51 68 69 68 8
0 24 6 35 14 31 21 123 31 152 15 22 -12 30 -10 71 14 89 53 157 81 210 85 28
3 52 9 52 14 0 23 -33 69 -60 83 -31 16 -41 50 -17 58 6 2 29 0 51 -5 45 -10
61 -1 70 42 7 35 39 41 56 10 8 -15 15 -18 33 -11 19 7 36 1 87 -31 l63 -40
25 32 c13 17 35 36 48 40 36 14 29 29 -22 52 l-47 20 -22 -28 -22 -28 -14 25
c-8 13 -19 33 -25 44 -31 59 -177 118 -345 141 -58 7 -113 16 -123 20 -13 5
-16 -1 -16 -30 0 -49 -16 -53 -96 -27 -45 15 -90 21 -150 21 -100 0 -148 16
-158 53 -8 33 -38 39 -150 31 -85 -6 -94 -4 -143 20 -28 15 -55 35 -58 46 -8
26 -40 26 -96 1 -49 -22 -63 -19 -56 15 4 23 2 24 -59 26 -35 1 -72 2 -81 2
-11 1 -20 -10 -25 -31 -14 -53 -23 -55 -190 -50 -77 3 -89 1 -93 -14 -8 -24
-39 -33 -67 -18 -37 20 -97 70 -114 97 -16 24 -15 26 7 43 20 16 22 20 9 29
-23 15 -106 12 -147 -5 -44 -19 -152 -20 -178 -1 -33 22 -72 27 -122 16 -47
-11 -55 -9 -115 21 -29 15 -47 11 -41 -9 3 -15 -5 -22 -39 -35 -85 -33 -177
-15 -130 25 40 33 128 83 176 98 45 15 51 20 54 47 4 43 -34 57 -127 48 -56
-5 -80 -3 -116 11 -40 15 -46 21 -42 41 4 19 0 23 -23 23 -15 0 -34 -8 -43
-17z m-2493 -995 c29 -40 21 -58 -24 -58 -35 0 -42 4 -51 27 -14 37 -5 53 30
53 20 0 35 -8 45 -22z m726 -763 c18 -21 8 -46 -25 -65 -41 -23 -48 -57 -18
-97 12 -17 23 -40 23 -51 0 -26 11 -34 27 -21 10 9 17 8 28 -1 19 -16 20 -50
1 -50 -21 0 -30 -19 -17 -34 18 -22 26 -113 11 -131 -32 -38 -126 -26 -157 22
-15 22 -14 29 2 83 17 58 17 59 -3 85 -30 38 -66 156 -58 188 13 55 155 110
186 72z m278 -66 c4 -44 -29 -80 -56 -63 -24 16 -25 35 -2 72 27 44 54 40 58
-9z"/>
<path d="M1876 6351 c-15 -6 -16 -10 -7 -15 8 -5 20 -2 29 8 17 17 9 19 -22 7z"/>
<path d="M1793 6318 c-37 -26 -41 -38 -15 -38 10 0 31 14 47 30 35 36 15 41
-32 8z"/>
<path d="M2675 6315 c6 -2 29 -9 52 -15 30 -7 46 -19 60 -43 29 -47 133 -70
275 -62 129 8 148 12 148 30 0 11 -7 14 -22 11 -54 -11 -247 -16 -293 -7 -36
7 -57 18 -75 39 -18 21 -40 33 -78 41 -50 10 -89 14 -67 6z"/>
<path d="M8415 6300 c-13 -6 -15 -9 -5 -9 8 0 22 4 30 9 18 12 2 12 -25 0z"/>
<path d="M2200 6284 c0 -30 -34 -58 -62 -51 -13 3 -49 14 -80 26 -72 27 -111
28 -106 4 3 -14 12 -17 41 -15 46 4 77 -12 77 -39 0 -15 5 -19 18 -15 9 3 53
15 96 26 79 20 104 30 74 30 -9 0 -26 12 -37 28 -19 25 -20 25 -21 6z"/>
<path d="M2508 6270 c-4 -30 6 -41 30 -32 15 5 16 34 0 50 -19 19 -25 15 -30
-18z"/>
<path d="M8225 6264 c-27 -8 -74 -20 -102 -26 -30 -7 -53 -18 -53 -25 0 -7
-14 -29 -32 -49 -29 -33 -31 -37 -15 -49 24 -18 21 -23 -15 -27 -20 -2 -38
-13 -51 -30 l-20 -26 36 -36 c20 -20 45 -36 57 -36 24 0 25 4 4 35 -25 38 -10
71 68 152 60 61 80 76 127 89 31 9 74 22 96 30 l40 12 -45 1 c-25 0 -67 -7
-95 -15z"/>
<path d="M10974 6265 c-12 -29 4 -48 34 -40 15 4 42 7 60 7 20 0 32 4 32 13 0
8 -11 13 -28 13 -15 -1 -37 4 -49 11 -29 15 -42 14 -49 -4z"/>
<path d="M11155 6260 c3 -5 13 -10 21 -10 8 0 14 5 14 10 0 6 -9 10 -21 10
-11 0 -17 -4 -14 -10z"/>
<path d="M2665 6220 c3 -5 13 -10 21 -10 8 0 14 5 14 10 0 6 -9 10 -21 10 -11
0 -17 -4 -14 -10z"/>
<path d="M10025 6180 c3 -5 13 -10 21 -10 8 0 12 5 9 10 -3 6 -13 10 -21 10
-8 0 -12 -4 -9 -10z"/>
<path d="M1723 6158 c-17 -8 -23 -20 -23 -42 0 -17 -7 -42 -16 -54 -15 -21
-14 -24 8 -42 30 -25 49 -25 81 0 14 11 28 20 32 20 4 0 23 13 41 30 19 16 46
33 59 36 52 13 21 39 -55 48 -30 3 -66 8 -80 11 -14 2 -35 -1 -47 -7z"/>
<path d="M2743 6143 c-32 -6 -46 -28 -38 -63 7 -31 25 -42 25 -15 0 8 18 26
40 40 60 38 49 53 -27 38z"/>
<path d="M11072 6138 c3 -7 15 -14 29 -16 24 -4 24 -3 4 12 -24 19 -38 20 -33
4z"/>
<path d="M2542 6124 c-22 -10 -32 -20 -29 -29 3 -7 -1 -19 -8 -25 -18 -15 -12
-26 27 -50 24 -14 36 -16 59 -8 33 11 35 19 13 53 -10 16 -14 34 -10 50 7 29
-2 31 -52 9z"/>
<path d="M3210 6111 c0 -16 17 -21 50 -15 22 5 28 9 18 15 -18 12 -68 11 -68
0z"/>
<path d="M2913 6084 c-24 -19 -33 -34 -33 -56 0 -29 34 -98 48 -98 313 -18
318 -19 404 -48 90 -30 118 -46 118 -67 0 -7 6 -15 14 -18 8 -3 19 -21 26 -41
9 -29 17 -35 43 -38 37 -4 49 -34 22 -54 -14 -10 -23 -10 -51 3 -39 19 -61 8
-66 -35 -3 -24 -7 -27 -48 -30 -63 -3 -90 -11 -90 -23 0 -8 16 -9 50 -5 39 5
60 2 100 -15 27 -12 50 -25 50 -30 0 -5 15 -16 33 -25 17 -9 34 -20 37 -24 3
-4 31 -15 62 -24 56 -16 57 -16 82 8 14 13 26 32 26 42 0 11 -25 47 -55 81
-30 33 -55 66 -55 71 0 11 48 52 60 52 5 0 27 -16 50 -35 23 -19 47 -35 54
-35 7 0 23 14 36 32 22 30 22 32 5 45 -11 7 -24 13 -31 13 -6 0 -22 9 -36 19
-13 11 -42 24 -64 30 -57 15 -78 41 -63 75 11 23 10 28 -7 41 -10 7 -41 19
-69 26 -27 6 -54 17 -60 23 -5 7 -23 16 -38 20 -16 4 -44 22 -63 41 -43 43
-95 48 -124 13 -16 -21 -20 -21 -61 -9 -24 7 -50 15 -56 17 -7 2 -16 21 -19
44 -5 33 -10 40 -30 40 -46 0 -74 -61 -54 -115 9 -23 8 -32 -5 -44 -14 -14
-17 -13 -38 7 -18 19 -22 34 -22 85 0 59 -2 62 -25 65 -15 1 -38 -8 -57 -24z
m752 -568 c24 -10 35 -22 35 -35 0 -26 -1 -26 -50 -1 -22 11 -40 27 -40 35 0
19 12 19 55 1z"/>
<path d="M1940 6066 c-35 -19 -44 -29 -42 -47 5 -41 21 -51 76 -44 66 7 110
-5 114 -33 3 -21 -12 -27 -92 -34 l-30 -3 42 -29 c37 -25 48 -28 91 -23 27 3
78 16 114 29 66 23 95 22 168 -7 10 -4 19 3 27 20 11 23 9 26 -23 39 -36 15
-67 63 -80 124 -11 50 -45 39 -59 -20 -8 -36 -30 -35 -73 2 -35 31 -57 37 -69
19 -3 -6 -17 -8 -31 -4 -14 3 -31 1 -39 -6 -19 -15 -42 -5 -46 21 -3 20 -3 20
-48 -4z"/>
<path d="M2668 5956 c-14 -32 -5 -54 23 -58 36 -5 44 -29 24 -72 -23 -47 -44
-59 -84 -45 -24 9 -41 7 -78 -5 -65 -22 -155 -21 -203 4 -21 11 -41 24 -45 30
-9 15 -45 12 -39 -3 2 -7 -7 -24 -21 -37 -15 -14 -25 -35 -25 -51 0 -32 -24
-45 -42 -23 -50 62 -54 64 -132 64 -41 0 -81 3 -90 6 -18 7 -22 39 -6 49 23
14 -4 27 -42 21 -30 -5 -56 0 -105 19 -50 20 -79 26 -126 23 -37 -1 -76 3 -96
11 -32 14 -36 12 -136 -39 -101 -52 -132 -57 -122 -19 3 12 0 19 -9 19 -16 0
-16 -2 -5 -54 21 -87 -35 -90 -64 -3 -9 27 -19 33 -100 58 -49 15 -100 28
-113 28 -13 1 -31 5 -41 10 -19 11 -189 33 -261 35 -25 1 -51 5 -57 9 -24 16
-118 35 -158 33 -22 -1 -66 -14 -97 -29 -31 -15 -61 -27 -66 -27 -6 0 -29 -15
-51 -34 -23 -19 -54 -37 -71 -41 -16 -4 -33 -11 -36 -17 -9 -14 40 -54 103
-84 59 -28 66 -35 57 -59 -11 -28 -51 -37 -91 -20 -29 12 -43 13 -70 4 -18 -6
-33 -12 -33 -13 0 -2 7 -17 15 -34 20 -39 78 -52 126 -28 18 9 38 16 45 16 19
0 28 -44 15 -68 -14 -27 -60 -59 -90 -63 -13 -2 -33 -17 -45 -32 l-21 -28 20
-37 c13 -24 31 -40 50 -45 34 -11 41 -14 80 -42 18 -12 48 -21 79 -22 28 -1
54 -2 59 -3 13 0 8 -55 -8 -76 -38 -51 4 -34 72 29 24 22 51 55 59 71 45 95
63 115 102 116 32 0 38 -25 12 -57 -13 -17 -17 -29 -10 -31 21 -7 41 8 55 42
20 48 47 54 96 21 24 -16 77 -34 132 -46 50 -11 119 -31 152 -44 33 -13 75
-25 94 -27 29 -2 39 -10 61 -48 15 -26 43 -54 69 -70 51 -30 70 -61 71 -116 0
-33 5 -45 25 -58 14 -9 25 -23 25 -31 0 -8 9 -19 20 -25 13 -7 20 -21 20 -38
0 -23 7 -30 33 -40 37 -13 121 -92 143 -135 17 -33 4 -67 -26 -67 -10 0 -21
-4 -24 -8 -3 -5 -6 -76 -7 -158 -2 -161 8 -223 42 -252 11 -9 33 -44 48 -77
26 -56 92 -129 140 -155 10 -5 31 -41 47 -80 16 -39 39 -83 52 -98 l23 -27
-16 32 c-17 37 -20 79 -4 88 21 14 57 -5 67 -34 10 -28 99 -166 164 -256 69
-95 88 -130 88 -163 0 -47 38 -80 174 -148 93 -47 117 -55 151 -51 34 4 54 -3
135 -48 52 -29 112 -58 132 -65 44 -13 106 -79 115 -121 4 -20 10 -28 19 -25
8 3 25 -7 39 -21 13 -15 44 -33 67 -40 54 -16 55 -16 62 2 4 12 0 14 -18 9
-16 -4 -32 3 -55 21 -47 40 -53 59 -52 155 1 99 8 92 -96 106 -70 9 -80 22
-64 82 41 160 39 173 -23 152 -37 -12 -56 -35 -56 -68 0 -31 -34 -53 -91 -58
-70 -7 -108 17 -146 88 -27 51 -28 59 -26 181 1 150 6 160 87 201 l56 28 71
-16 c88 -20 93 -20 85 -1 -8 22 33 55 68 54 17 0 55 -4 85 -8 66 -10 83 -28
111 -121 19 -64 43 -100 57 -87 3 4 -6 54 -21 111 -14 58 -26 116 -26 128 0
14 26 52 68 99 123 139 128 148 113 191 -15 42 -14 70 3 93 12 17 16 18 32 5
14 -12 18 -12 22 -2 13 40 70 97 107 108 38 10 40 13 37 46 -5 53 28 84 132
124 48 19 98 34 109 34 18 1 16 3 -9 14 -61 27 -84 89 -38 100 18 5 24 10 17
17 -15 15 -58 1 -115 -38 -48 -33 -78 -37 -78 -11 0 16 91 103 130 123 17 9
76 20 133 25 60 5 129 18 167 32 l65 23 0 40 0 40 -67 -3 c-63 -3 -68 -2 -68
18 0 12 12 28 31 39 l30 19 -38 22 c-21 12 -45 25 -53 29 -19 10 -110 170
-110 194 0 24 -20 21 -51 -9 -15 -14 -46 -30 -70 -35 -40 -9 -45 -8 -71 19
-29 29 -34 46 -24 92 5 22 -2 30 -54 64 -62 39 -119 54 -164 42 -28 -7 -52
-62 -41 -96 4 -11 1 -44 -5 -73 -11 -48 -10 -56 9 -87 26 -44 27 -80 0 -132
-12 -23 -24 -73 -28 -117 -5 -42 -13 -87 -20 -99 -20 -37 -58 -28 -112 27 -47
46 -49 50 -49 104 0 54 -1 57 -27 62 -70 15 -102 27 -158 61 -33 20 -75 41
-94 47 -26 9 -37 21 -46 47 -9 27 -18 36 -41 40 -22 4 -32 13 -40 39 -16 49
-8 73 47 138 27 32 56 72 64 90 16 35 42 53 74 53 29 0 71 21 71 36 0 7 -13
15 -30 19 -44 10 -41 42 5 51 19 3 46 3 60 0 20 -5 25 -3 25 14 0 15 7 20 29
20 36 0 91 18 114 38 16 14 16 17 1 40 -9 13 -14 35 -11 49 6 31 -16 53 -54
53 -24 0 -29 -4 -29 -23 0 -29 -55 -107 -75 -107 -15 0 -45 48 -45 73 0 7 -6
22 -14 33 -14 19 -15 19 -38 -3 -32 -30 -56 -29 -64 1 -3 14 -17 32 -30 41
-18 12 -23 22 -19 36 5 14 0 29 -16 45 -30 32 -66 31 -81 0z m255 -1173 c9 -9
-13 -34 -24 -27 -14 8 -11 34 4 34 8 0 17 -3 20 -7z m70 -93 c14 -11 35 -36
47 -55 17 -28 33 -38 78 -51 79 -22 91 -35 63 -70 -11 -14 -21 -33 -21 -40 0
-37 -74 19 -82 61 -2 11 -11 21 -20 23 -23 4 -52 -44 -67 -113 -21 -95 -57
-55 -49 55 3 38 8 48 35 65 18 11 32 23 33 27 0 13 -65 28 -121 28 -32 0 -60
4 -63 9 -9 14 85 79 115 80 15 1 38 -8 52 -19z m363 -31 c9 -16 -20 -41 -39
-33 -17 6 -22 25 -10 37 10 11 41 8 49 -4z m-118 -66 c-2 -10 -10 -18 -18 -18
-8 0 -16 8 -18 18 -2 12 3 17 18 17 15 0 20 -5 18 -17z m112 -106 c0 -8 -24
-24 -52 -38 -29 -13 -76 -38 -105 -56 -57 -36 -73 -40 -73 -19 0 16 29 37 125
88 74 39 105 47 105 25z"/>
<path d="M8169 5906 c16 -19 44 -21 39 -3 -3 6 -15 14 -28 15 -21 3 -22 2 -11
-12z"/>
<path d="M2561 5867 c-15 -19 19 -50 45 -41 43 16 46 27 13 41 -39 16 -44 16
-58 0z"/>
<path d="M7805 5859 c-4 -6 -4 -13 -1 -16 8 -8 36 5 36 17 0 13 -27 13 -35 -1z"/>
<path d="M3338 5763 c7 -3 16 -2 19 1 4 3 -2 6 -13 5 -11 0 -14 -3 -6 -6z"/>
<path d="M5405 5663 c-23 -3 -44 -12 -52 -22 -7 -10 -26 -24 -43 -31 -36 -15
-37 -19 -9 -49 19 -20 29 -23 73 -19 52 5 176 54 176 70 0 5 -7 20 -16 33 -17
26 -30 28 -129 18z"/>
<path d="M3012 5578 c0 -24 -2 -52 -4 -63 -5 -30 28 -30 64 0 19 16 37 24 47
19 9 -3 25 -9 36 -12 l20 -5 -20 23 c-11 12 -45 34 -75 48 -30 14 -58 27 -61
29 -3 2 -6 -16 -7 -39z"/>
<path d="M24 5495 c22 -17 42 -19 50 -6 7 11 -17 21 -47 21 -22 -1 -22 -1 -3
-15z"/>
<path d="M3090 5440 c0 -5 4 -10 9 -10 6 0 13 5 16 10 3 6 -1 10 -9 10 -9 0
-16 -4 -16 -10z"/>
<path d="M3210 5429 c0 -5 5 -7 10 -4 6 3 10 8 10 11 0 2 -4 4 -10 4 -5 0 -10
-5 -10 -11z"/>
<path d="M5891 5196 c-31 -49 -20 -121 21 -142 23 -12 48 -48 48 -68 0 -2 -14
-21 -30 -42 l-31 -38 26 -13 c29 -16 33 -38 8 -52 -13 -7 -1 -8 42 -5 90 8
101 11 113 39 10 21 9 26 -9 35 -11 6 -30 35 -43 64 -13 30 -41 72 -61 95 -33
36 -37 45 -27 65 10 22 8 25 -15 31 -22 5 -25 10 -19 35 7 39 2 38 -23 -4z"/>
<path d="M623 5185 c-15 -13 -23 -25 -17 -25 6 0 21 11 34 25 30 32 19 32 -17
0z"/>
<path d="M6397 5107 c-11 -29 -9 -43 4 -30 6 6 9 19 7 29 -3 18 -4 18 -11 1z"/>
<path d="M5770 5025 c0 -8 -8 -22 -19 -32 -18 -17 -40 -103 -26 -103 17 0 86
43 95 59 15 30 12 78 -6 85 -26 10 -44 7 -44 -9z"/>
<path d="M11111 4946 c-9 -22 -9 -42 -2 -75 6 -25 13 -62 16 -82 5 -30 9 -36
24 -32 18 5 18 7 5 39 -8 19 -18 67 -23 107 -7 69 -8 71 -20 43z"/>
<path d="M3140 4931 c0 -5 5 -13 10 -16 6 -3 10 -2 10 4 0 5 -4 13 -10 16 -5
3 -10 2 -10 -4z"/>
<path d="M3994 4746 c-33 -29 -37 -37 -28 -53 11 -18 30 -20 99 -12 27 4 30 1
33 -24 3 -28 4 -28 23 -11 41 37 11 94 -50 94 -28 0 -33 3 -28 20 7 28 -4 25
-49 -14z"/>
<path d="M3800 4751 c0 -10 25 -21 48 -21 15 1 14 3 -2 15 -22 17 -46 20 -46
6z"/>
<path d="M11130 4630 c0 -5 5 -10 11 -10 5 0 7 5 4 10 -3 6 -8 10 -11 10 -2 0
-4 -4 -4 -10z"/>
<path d="M3770 4530 l-35 -31 42 23 c24 13 43 26 43 31 0 14 -16 7 -50 -23z"/>
<path d="M11087 4543 c-4 -3 -7 -19 -7 -34 0 -18 -9 -34 -26 -46 -21 -15 -24
-24 -19 -46 7 -25 35 -39 35 -17 0 6 11 10 24 10 30 0 118 58 113 74 -2 6 -14
13 -27 14 -13 2 -38 15 -55 28 -18 13 -35 21 -38 17z"/>
<path d="M11025 4293 c-10 -59 -23 -83 -44 -83 -14 0 -19 -5 -15 -15 9 -23
-16 -47 -41 -41 -16 4 -27 -2 -44 -24 -15 -21 -33 -32 -62 -36 -23 -4 -63 -22
-90 -40 -27 -19 -55 -34 -64 -34 -18 0 -18 -8 0 -40 8 -14 14 -40 15 -58 0
-44 18 -38 48 17 17 30 32 44 53 48 36 7 47 23 25 35 -9 5 -16 13 -16 18 0 18
44 10 67 -12 22 -21 23 -21 43 -3 13 11 41 20 75 23 50 4 56 7 61 31 3 14 16
61 30 104 34 110 31 147 -12 147 -19 0 -24 -7 -29 -37z"/>
<path d="M6370 4306 c0 -9 5 -16 10 -16 6 0 10 4 10 9 0 6 -4 13 -10 16 -5 3
-10 -1 -10 -9z"/>
<path d="M6893 4225 c7 -14 -2 -29 -28 -43 -11 -6 -15 -12 -9 -12 7 0 22 9 35
19 20 17 22 22 10 33 -8 7 -11 8 -8 3z"/>
<path d="M6546 4192 c-3 -5 6 -14 20 -21 22 -10 25 -9 22 6 -4 19 -33 30 -42
15z"/>
<path d="M7225 4080 c4 -6 11 -8 16 -5 14 9 11 15 -7 15 -8 0 -12 -5 -9 -10z"/>
<path d="M2005 3750 c-5 -17 0 -29 24 -54 16 -17 37 -47 45 -67 8 -19 22 -42
31 -49 14 -12 15 -10 5 16 -6 15 -16 34 -21 41 -6 7 -26 40 -44 74 -29 55 -34
59 -40 39z"/>
<path d="M10585 3679 c-11 -17 1 -21 15 -4 8 9 8 15 2 15 -6 0 -14 -5 -17 -11z"/>
<path d="M10346 3555 c-3 -9 -6 -22 -5 -28 0 -7 5 -1 10 12 5 13 8 26 5 28 -2
2 -6 -3 -10 -12z"/>
<path d="M3092 3517 c-30 -17 -17 -29 23 -21 25 4 49 -3 104 -30 39 -20 77
-45 83 -56 14 -21 53 -26 78 -10 20 14 0 29 -105 80 -92 45 -149 56 -183 37z"/>
<path d="M530 3386 c0 -17 14 -29 23 -20 8 8 -3 34 -14 34 -5 0 -9 -6 -9 -14z"/>
<path d="M3470 3345 c-11 -13 -6 -15 33 -15 57 0 85 9 65 21 -22 14 -85 10
-98 -6z"/>
<path d="M3285 3310 c4 -6 11 -8 16 -5 14 9 11 15 -7 15 -8 0 -12 -5 -9 -10z"/>
<path d="M10347 3313 c-3 -5 -8 -33 -12 -64 -6 -50 -4 -60 14 -78 12 -12 28
-21 37 -21 13 0 12 5 -5 29 -25 34 -26 49 -7 70 14 16 19 34 17 59 -1 13 -37
17 -44 5z"/>
<path d="M10450 3091 c0 -5 5 -13 10 -16 6 -3 10 -2 10 4 0 5 -4 13 -10 16 -5
3 -10 2 -10 -4z"/>
<path d="M3433 3017 c-32 -17 -46 -33 -62 -69 -11 -27 -24 -48 -29 -48 -4 0
-23 11 -42 25 -38 28 -52 25 -26 -4 26 -28 45 -89 46 -141 0 -46 -14 -80 -72
-172 -15 -24 -33 -64 -40 -91 -11 -41 -10 -51 5 -76 16 -27 16 -29 -7 -51
l-24 -22 35 -81 c20 -45 54 -134 77 -197 23 -64 49 -126 57 -138 9 -12 45 -44
80 -71 35 -27 79 -63 98 -81 32 -30 33 -33 27 -88 -3 -31 -13 -165 -21 -297
-17 -261 -25 -311 -63 -395 -25 -54 -36 -137 -33 -250 0 -25 2 -86 3 -136 3
-103 -8 -130 -49 -119 -20 5 -16 -2 21 -38 50 -47 57 -72 26 -82 -16 -5 -20
-15 -20 -49 0 -24 -3 -58 -6 -75 -5 -24 -3 -31 9 -31 9 0 33 -14 53 -32 l36
-32 19 25 c11 13 31 47 44 74 28 57 39 76 78 126 15 20 27 39 27 42 0 4 -11
17 -25 31 -37 37 -33 78 10 122 19 19 35 44 35 56 0 12 8 30 17 40 14 16 15
23 5 38 -21 34 -15 59 16 66 48 10 51 12 76 53 22 35 32 41 83 51 117 24 139
57 88 132 -45 66 -35 78 40 47 67 -26 132 33 214 198 38 76 43 92 38 133 -5
44 -3 50 26 77 49 47 158 111 206 122 24 5 48 15 53 23 47 70 69 149 77 280 7
109 9 118 37 150 61 70 97 138 102 193 l4 52 -67 51 c-58 43 -76 51 -129 57
-78 9 -101 18 -152 61 -23 19 -48 34 -54 34 -7 0 -28 -14 -47 -31 -28 -24 -42
-29 -71 -27 -49 4 -57 34 -13 49 17 6 31 18 31 26 0 10 -15 4 -49 -21 -54 -40
-71 -44 -71 -18 0 20 21 54 59 95 21 23 23 31 14 46 -6 10 -17 37 -23 60 -13
50 -67 90 -132 98 -24 3 -54 11 -68 18 -30 16 -170 158 -170 174 0 7 -24 11
-63 11 -39 0 -87 8 -123 21 -95 33 -105 31 -119 -33 -4 -19 -12 -28 -25 -28
-25 0 -43 35 -36 66 4 13 5 24 4 23 -2 0 -22 -10 -45 -22z"/>
<path d="M9570 2913 c0 -10 7 -29 16 -42 9 -12 24 -49 34 -81 25 -84 100 -186
100 -137 0 37 -36 127 -65 162 -17 22 -39 54 -48 72 -20 39 -37 51 -37 26z"/>
<path d="M8896 2886 c-7 -30 2 -56 19 -56 22 0 28 19 15 51 -15 35 -26 37 -34
5z"/>
<path d="M10453 2896 c-44 -16 -51 -26 -19 -26 19 0 29 -7 36 -25 5 -14 13
-25 18 -25 18 0 43 39 40 62 -4 27 -28 32 -75 14z"/>
<path d="M10122 2740 c-42 -39 -92 -84 -109 -101 -18 -16 -45 -34 -59 -39 -23
-9 -25 -14 -19 -43 9 -43 51 -114 78 -132 12 -7 51 -15 87 -17 l65 -3 6 40 c3
22 22 68 43 103 40 68 41 93 2 124 l-21 17 34 35 c29 30 32 37 21 51 -35 42
-46 39 -128 -35z"/>
<path d="M9487 2737 c4 -7 24 -36 45 -66 21 -30 38 -60 38 -66 0 -6 18 -36 40
-65 22 -29 40 -59 40 -66 0 -13 107 -134 119 -134 6 0 41 89 41 104 0 3 -8 6
-18 6 -24 0 -89 55 -98 83 -9 30 -170 204 -195 210 -13 3 -17 1 -12 -6z"/>
<path d="M10590 2568 c0 -19 2 -20 10 -8 13 19 13 30 0 30 -5 0 -10 -10 -10
-22z"/>
<path d="M10306 2508 c-10 -31 -15 -98 -10 -113 6 -14 10 -10 20 15 8 19 19
30 27 27 21 -8 8 57 -14 71 -15 10 -20 10 -23 0z"/>
<path d="M10780 2480 c20 -15 23 -21 13 -31 -21 -21 -15 -34 17 -35 30 -1 30
0 15 22 -8 13 -15 30 -15 38 0 14 -21 26 -43 26 -7 0 -1 -9 13 -20z"/>
<path d="M10902 2422 l-32 -27 45 -29 c55 -34 81 -77 64 -107 -13 -25 -18 -20
54 -47 74 -28 83 -27 119 3 44 37 68 32 120 -25 25 -27 53 -50 63 -50 14 0 13
5 -8 30 -14 16 -31 46 -37 67 -17 51 -33 68 -112 114 -68 40 -206 99 -230 99
-7 0 -28 -13 -46 -28z"/>
<path d="M10629 2419 c-10 -6 -7 -9 14 -9 29 0 35 5 14 13 -8 3 -20 1 -28 -4z"/>
<path d="M10376 2395 c10 -46 23 -65 24 -34 0 14 -7 34 -15 45 -14 18 -15 17
-9 -11z"/>
<path d="M11480 2411 c0 -5 5 -13 10 -16 6 -3 10 -2 10 4 0 5 -4 13 -10 16 -5
3 -10 2 -10 -4z"/>
<path d="M11398 2349 c-41 -21 -50 -39 -20 -39 18 0 70 46 61 54 -2 2 -21 -5
-41 -15z"/>
<path d="M9843 2265 c27 -16 227 -59 235 -51 10 11 -69 41 -123 47 -33 4 -78
10 -100 14 l-40 6 28 -16z"/>
<path d="M11750 2210 c0 -5 5 -10 11 -10 5 0 7 5 4 10 -3 6 -8 10 -11 10 -2 0
-4 -4 -4 -10z"/>
<path d="M10514 2191 c-37 -23 -71 -61 -55 -61 33 0 112 62 93 73 -4 3 -22 -2
-38 -12z"/>
<path d="M10325 2180 c3 -5 10 -10 16 -10 5 0 9 5 9 10 0 6 -7 10 -16 10 -8 0
-12 -4 -9 -10z"/>
<path d="M10729 2037 c-37 -46 -54 -78 -54 -107 0 -22 -5 -25 -44 -28 -33 -2
-52 2 -73 18 l-28 20 -40 -37 c-22 -21 -40 -47 -40 -59 0 -25 -23 -37 -39 -21
-8 8 -11 4 -11 -17 0 -42 -53 -86 -172 -144 -57 -27 -114 -61 -128 -76 -22
-24 -23 -30 -12 -56 40 -98 38 -91 18 -105 -18 -14 -18 -15 -1 -52 28 -59 55
-171 55 -230 0 -90 44 -115 124 -68 23 14 67 29 96 35 29 6 69 22 88 37 38 29
129 52 206 53 65 0 131 -32 165 -81 14 -21 29 -38 32 -39 3 0 16 18 28 41 31
54 57 50 54 -8 -1 -33 2 -42 18 -46 10 -3 19 -13 19 -24 0 -10 18 -46 40 -79
43 -68 64 -78 130 -61 35 10 42 9 63 -11 l23 -22 24 25 c12 13 38 29 56 35 25
9 34 18 39 43 4 18 23 70 41 117 36 88 58 190 69 320 l7 75 -43 31 c-24 17
-62 57 -84 90 -22 32 -56 75 -76 95 -38 38 -69 111 -69 163 0 17 -7 42 -15 56
-8 14 -26 49 -41 78 -14 30 -30 50 -34 45 -4 -4 -15 -43 -23 -85 -18 -89 -49
-166 -71 -174 -18 -7 -139 76 -162 111 -17 26 -13 68 12 116 12 24 11 27 -10
37 -13 6 -43 13 -67 16 -41 5 -46 3 -70 -27z"/>
<path d="M7785 1962 c-11 -20 -42 -51 -70 -69 -68 -45 -75 -57 -75 -132 -1
-38 -7 -77 -15 -91 -25 -44 -14 -142 21 -179 10 -12 18 -12 43 -1 35 14 35 13
90 242 40 162 47 215 33 250 -6 14 -11 11 -27 -20z"/>
<path d="M11905 1660 c19 -21 45 -27 45 -10 0 11 -33 30 -51 30 -8 0 -5 -7 6
-20z"/>
<path d="M12242 885 c-11 -41 -10 -47 8 -65 11 -11 20 -24 20 -30 0 -5 5 -10
10 -10 6 0 10 6 10 14 0 7 14 30 30 51 33 42 37 55 16 55 -7 0 -19 7 -26 15
-7 8 -22 15 -34 15 -17 0 -24 -9 -34 -45z"/>
<path d="M11210 745 c0 -3 7 -21 14 -40 11 -26 21 -35 39 -35 26 0 37 16 37
56 0 22 -4 24 -45 24 -25 0 -45 -2 -45 -5z"/>
<path d="M12160 730 c-11 -11 -20 -25 -20 -31 0 -6 -29 -41 -64 -77 -35 -37
-68 -76 -74 -88 -10 -19 -7 -22 29 -33 48 -15 65 -5 74 42 4 18 20 51 36 74
16 23 29 44 29 48 0 4 9 18 19 32 19 23 19 53 0 53 -5 0 -18 -9 -29 -20z"/>
<path d="M8496 365 c7 -17 30 -20 38 -6 3 5 -1 12 -10 15 -25 10 -34 7 -28 -9z"/>
<path d="M3880 229 c0 -5 5 -7 10 -4 6 3 10 8 10 11 0 2 -4 4 -10 4 -5 0 -10
-5 -10 -11z"/>
<path d="M3410 180 c0 -5 5 -10 11 -10 5 0 7 5 4 10 -3 6 -8 10 -11 10 -2 0
-4 -4 -4 -10z"/>
<path d="M3569 115 c-16 -33 -16 -35 2 -35 10 0 30 -5 44 -12 19 -9 28 -9 37
0 9 9 4 20 -22 47 -19 19 -36 35 -39 35 -4 -1 -13 -16 -22 -35z"/>
<path d="M4704 102 c9 -15 48 -23 43 -9 -2 7 -14 14 -26 15 -13 2 -21 -1 -17
-6z"/>
</g>
</svg>
