<svg xmlns="http://www.w3.org/2000/svg" viewBox="0 0 1440 320">
  <path fill="#0099ff" fill-opacity="1" d="M0,32L0,256L36.9,256L36.9,160L73.8,160L73.8,192L110.8,192L110.8,160L147.7,160L147.7,256L184.6,256L184.6,128L221.5,128L221.5,96L258.5,96L258.5,160L295.4,160L295.4,96L332.3,96L332.3,160L369.2,160L369.2,192L406.2,192L406.2,256L443.1,256L443.1,224L480,224L480,192L516.9,192L516.9,96L553.8,96L553.8,224L590.8,224L590.8,64L627.7,64L627.7,96L664.6,96L664.6,32L701.5,32L701.5,192L738.5,192L738.5,256L775.4,256L775.4,32L812.3,32L812.3,128L849.2,128L849.2,192L886.2,192L886.2,160L923.1,160L923.1,224L960,224L960,256L996.9,256L996.9,32L1033.8,32L1033.8,32L1070.8,32L1070.8,256L1107.7,256L1107.7,128L1144.6,128L1144.6,256L1181.5,256L1181.5,96L1218.5,96L1218.5,64L1255.4,64L1255.4,32L1292.3,32L1292.3,160L1329.2,160L1329.2,96L1366.2,96L1366.2,32L1403.1,32L1403.1,192L1440,192L1440,320L1403.1,320L1403.1,320L1366.2,320L1366.2,320L1329.2,320L1329.2,320L1292.3,320L1292.3,320L1255.4,320L1255.4,320L1218.5,320L1218.5,320L1181.5,320L1181.5,320L1144.6,320L1144.6,320L1107.7,320L1107.7,320L1070.8,320L1070.8,320L1033.8,320L1033.8,320L996.9,320L996.9,320L960,320L960,320L923.1,320L923.1,320L886.2,320L886.2,320L849.2,320L849.2,320L812.3,320L812.3,320L775.4,320L775.4,320L738.5,320L738.5,320L701.5,320L701.5,320L664.6,320L664.6,320L627.7,320L627.7,320L590.8,320L590.8,320L553.8,320L553.8,320L516.9,320L516.9,320L480,320L480,320L443.1,320L443.1,320L406.2,320L406.2,320L369.2,320L369.2,320L332.3,320L332.3,320L295.4,320L295.4,320L258.5,320L258.5,320L221.5,320L221.5,320L184.6,320L184.6,320L147.7,320L147.7,320L110.8,320L110.8,320L73.8,320L73.8,320L36.9,320L36.9,320L0,320L0,320Z"></path>
</svg>