<?xml version="1.0" standalone="no"?>
<!DOCTYPE svg >
<svg version="1.0" xmlns="http://www.w3.org/2000/svg"
 width="6000px" height="5600px" viewBox="0 0 600.000000 560.000000"
 preserveAspectRatio="xMidYMid meet">
<metadata>
</metadata>
<g transform="translate(0.000000,560.000000) scale(0.100000,-0.100000)"
fill="#ff6500" stroke="none" style="filter:drop-shadow(500px 500px #181a3b);">
<path d="M1120 4961 c-196 -74 -258 -115 -322 -214 l-31 -48 27 -28 c14 -15
26 -36 26 -48 0 -22 -76 -342 -83 -349 -8 -9 -68 19 -64 30 2 6 17 58 32 115
27 94 28 105 14 130 -8 14 -24 26 -34 26 -22 0 -49 -65 -91 -222 -21 -79 -23
-100 -15 -152 6 -34 13 -65 16 -71 4 -7 -71 -285 -141 -522 -3 -10 -11 -18
-19 -18 -14 0 -25 -21 -25 -49 0 -12 15 -24 45 -35 47 -18 48 -23 30 -83 -3
-7 9 -20 25 -28 17 -9 30 -21 30 -28 0 -6 -50 -191 -112 -410 l-113 -398 -35
-22 c-59 -36 -141 -119 -169 -172 -22 -43 -26 -62 -26 -135 1 -96 12 -126 56
-144 18 -7 74 -68 144 -153 l114 -141 11 -101 c29 -260 118 -438 258 -514 59
-32 245 -69 336 -66 37 1 91 -7 136 -20 98 -28 249 -38 321 -21 107 25 145 53
329 240 181 183 229 219 304 223 28 2 42 11 70 47 20 25 36 56 36 70 0 14 11
41 23 60 13 19 32 48 43 64 l18 29 -24 -13 c-14 -7 -44 -26 -67 -41 -54 -37
-63 -36 -63 5 l0 33 -122 6 c-293 13 -512 97 -687 263 -86 81 -86 82 -151 88
-141 15 -135 12 -159 71 l-22 53 76 258 c356 1205 377 1274 387 1274 18 0
1286 -409 1346 -434 88 -37 219 -117 304 -184 109 -87 255 -245 331 -357 66
-99 67 -102 102 -254 37 -165 41 -191 25 -191 -5 0 -10 -13 -10 -28 0 -19 -7
-32 -19 -38 -18 -9 -17 -16 31 -144 28 -76 61 -147 76 -162 23 -26 24 -30 14
-66 -30 -98 -9 -227 48 -299 11 -14 20 -34 20 -44 0 -18 -10 -19 -156 -19
l-156 0 7 -30 c6 -26 4 -30 -14 -30 -24 0 -27 -19 -10 -84 l11 -43 150 -6 c83
-4 186 -7 230 -7 l78 0 0 -55 c0 -52 -1 -55 -22 -51 -13 3 -133 8 -268 11
-232 6 -253 5 -390 -19 -176 -31 -278 -57 -322 -83 -45 -26 -95 -112 -103
-177 -14 -111 38 -199 150 -256 l68 -35 224 1 c207 0 223 -1 229 -18 23 -74
151 -151 304 -184 73 -15 190 -7 1120 81 261 24 579 54 705 65 l230 22 50 34
c87 59 115 118 115 246 0 90 -10 121 -53 166 -61 64 -149 95 -302 107 -44 3
-134 13 -200 21 -151 19 -270 19 -364 -1 -40 -8 -83 -15 -96 -15 -32 0 -135
51 -135 66 0 16 24 19 565 54 253 17 479 33 503 36 l42 5 0 75 c0 43 -4 74
-10 74 -6 0 -10 26 -10 58 0 33 -3 120 -7 195 -6 135 -6 137 -30 137 -19 0
-23 5 -23 34 0 18 -3 61 -6 94 l-7 62 -266 -3 -266 -2 -10 167 c-5 92 -14 171
-20 177 -5 5 -120 37 -255 71 l-245 62 -245 -21 c-135 -12 -251 -21 -258 -21
-10 0 -12 -10 -7 -40 7 -42 -11 -180 -24 -180 -21 0 -60 62 -76 120 -51 192
-162 494 -232 635 -90 180 -246 367 -397 477 -39 29 -72 52 -73 53 -1 0 -4 27
-8 60 -14 142 -23 155 -115 155 -51 0 -61 4 -125 50 -140 101 -260 169 -354
200 -81 26 -139 59 -428 241 -184 116 -337 208 -341 204 -4 -4 2 -13 13 -21
25 -18 10 -48 -27 -52 -14 -2 -29 -11 -34 -22 -8 -16 -44 3 -346 183 -186 111
-338 207 -338 213 0 6 -7 34 -16 63 -11 39 -23 57 -47 71 -42 26 -67 25 -157
-9z m568 -421 c206 -120 302 -181 304 -194 2 -13 112 -81 356 -221 194 -111
356 -206 360 -210 4 -4 -4 -4 -18 1 -14 4 -295 89 -624 189 l-599 180 -48 205
c-51 219 -54 234 -40 228 5 -1 144 -82 309 -178z m-978 -18 c0 -14 -84 -321
-97 -352 -12 -29 -22 84 -12 130 13 56 58 208 72 237 8 18 13 20 24 12 7 -6
13 -18 13 -27z m1748 -243 c232 -147 300 -185 357 -201 68 -19 185 -74 185
-88 0 -3 -15 -13 -33 -22 l-32 -15 -190 109 c-105 60 -280 161 -391 224 -196
113 -200 116 -196 145 2 16 6 29 9 29 2 0 133 -82 291 -181z m-1658 -799 c-66
-436 -123 -797 -127 -800 -5 -4 -35 -13 -68 -20 -33 -7 -91 -23 -130 -36 -38
-13 -73 -24 -76 -24 -7 0 202 719 214 738 5 6 16 12 26 12 19 0 16 -10 203
672 40 148 74 264 76 260 1 -4 -52 -365 -118 -802z m-205 324 c-37 -131 -68
-240 -69 -242 -2 -1 -16 2 -31 8 -19 7 -26 16 -23 28 3 9 36 124 73 255 l68
238 24 -24 25 -24 -67 -239z m2564 86 c98 -67 104 -70 161 -70 51 0 62 -3 74
-22 16 -26 27 -148 13 -148 -22 0 -45 22 -50 48 -8 37 -51 79 -90 87 -18 4
-49 20 -69 36 -20 16 -48 29 -62 29 -40 0 -56 11 -56 37 0 22 -3 23 -32 18
-18 -3 -40 -1 -47 4 -12 8 -11 13 10 30 13 11 29 20 35 21 6 0 57 -31 113 -70z
m564 -1545 c76 -126 97 -168 97 -197 0 -36 -1 -37 -28 -32 -20 4 -34 0 -46
-11 -9 -10 -19 -16 -20 -14 -2 2 -16 54 -30 114 -41 171 -46 185 -60 185 -12
0 -36 93 -36 141 0 17 4 11 123 -186z m990 135 c-6 -97 -45 -535 -48 -538 -2
-2 -109 -6 -239 -9 -225 -6 -236 -5 -236 13 0 29 101 528 109 537 7 7 368 37
401 33 11 -1 14 -12 13 -36z m224 -19 l100 -31 7 -178 c3 -97 7 -213 8 -257
l1 -80 -141 0 c-77 0 -143 3 -147 7 -4 4 5 128 19 276 14 148 26 277 26 287 0
10 5 15 13 12 8 -3 59 -19 114 -36z m283 -52 c6 -9 23 -289 25 -399 0 -13
-106 -79 -127 -80 -5 0 -8 117 -8 259 l0 259 52 -13 c28 -8 54 -19 58 -26z
m-4595 -76 c-5 -63 -15 -105 -33 -146 l-27 -58 -75 -4 c-84 -4 -100 3 -100 47
0 42 31 96 87 150 48 47 143 111 151 103 2 -2 1 -44 -3 -92z m2765 -1192 l0
-48 -119 -8 c-115 -6 -121 -6 -151 17 l-32 23 29 7 c98 26 231 56 251 57 20 1
22 -4 22 -48z"/>
</g>
</svg>
