<?xml version="1.0" standalone="no"?>
<!DOCTYPE svg PUBLIC "-//W3C//DTD SVG 20010904//EN"
 "http://www.w3.org/TR/2001/REC-SVG-20010904/DTD/svg10.dtd">
<svg version="1.0" xmlns="http://www.w3.org/2000/svg"
 width="1914.000000pt" height="865.000000pt" viewBox="0 0 1914.000000 865.000000"
 preserveAspectRatio="xMidYMid meet">
<metadata>
Created by potrace 1.16, written by Peter Selinger 2001-2019
</metadata>
<g transform="translate(0.000000,865.000000) scale(0.100000,-0.100000)"
fill="gold" stroke="none">
<path d="M10545 5973 c-27 -8 -74 -15 -104 -14 -116 3 -192 -62 -271 -233
l-40 -86 -52 0 c-97 0 -170 -55 -208 -159 -13 -34 -33 -59 -76 -94 -78 -64
-406 -322 -420 -330 -5 -3 -38 1 -73 10 -105 27 -136 -3 -150 -143 -5 -49 -14
-102 -21 -119 -7 -16 -16 -100 -20 -186 -9 -177 -20 -212 -75 -235 -19 -8 -56
-14 -82 -14 -61 0 -293 34 -376 55 -79 20 -112 10 -132 -40 -8 -19 -15 -44
-15 -56 0 -12 -3 -19 -7 -15 -9 9 -10 14 -12 55 -1 38 -25 61 -60 61 -43 0
-61 -28 -61 -93 0 -64 10 -58 -129 -86 -52 -10 -105 -28 -121 -39 -15 -12 -53
-27 -84 -36 -67 -17 -99 -36 -123 -73 -16 -24 -18 -48 -15 -183 6 -283 40
-380 157 -443 36 -20 60 -22 242 -27 l202 -5 -20 -46 -20 -46 -91 -7 c-50 -3
-121 -6 -157 -6 -88 0 -135 -14 -181 -56 -116 -105 -49 -393 111 -475 63 -32
111 -37 514 -59 490 -28 922 -30 1119 -6 148 18 176 28 234 80 l37 33 290 7
c343 7 445 19 504 61 92 63 150 175 151 288 0 135 -66 214 -215 253 -54 15
-258 17 -563 5 -96 -3 -175 -4 -177 -3 -2 2 3 22 11 44 20 57 18 111 -6 141
-25 32 -25 37 3 37 32 0 84 35 107 72 18 30 20 51 20 223 0 303 -24 484 -90
682 -16 48 -26 91 -22 94 20 19 447 349 452 349 10 0 510 -817 510 -834 0 -9
-7 -19 -15 -22 -8 -4 -15 -12 -15 -18 0 -7 74 -157 164 -334 115 -226 166
-336 170 -370 4 -26 9 -59 12 -73 l5 -26 165 56 164 56 55 113 c32 67 60 112
69 112 39 0 112 132 146 264 24 93 25 146 6 210 -33 108 -100 153 -276 184
-89 15 -105 21 -108 38 -8 52 -14 65 -41 78 -43 23 -102 129 -105 189 -3 58
-29 87 -80 87 -29 0 -35 5 -59 56 -19 38 -26 65 -22 83 4 21 -30 100 -158 366
-142 294 -169 342 -199 362 -30 20 -38 36 -61 111 -50 166 -103 210 -212 175z
m123 -36 c23 -25 82 -174 82 -208 0 -16 -5 -20 -27 -17 -21 2 -37 20 -80 91
-30 48 -68 97 -84 109 -33 25 -36 35 -11 41 49 13 99 6 120 -16z m-238 -22
c-7 -8 -20 -15 -30 -15 -31 0 -60 -33 -68 -78 -6 -38 -15 -49 -82 -102 -41
-32 -76 -58 -78 -56 -2 2 14 38 34 80 63 129 124 185 203 186 29 0 32 -2 21
-15z m16 -51 c27 -13 48 -40 95 -120 l60 -103 42 19 c61 28 122 26 152 -5 45
-44 27 -106 -50 -172 l-45 -39 131 -319 c72 -176 140 -344 151 -372 11 -29 27
-53 34 -53 24 0 44 12 44 28 0 24 30 52 57 52 29 0 63 -33 63 -62 0 -30 -30
-76 -75 -113 l-36 -31 36 -91 c19 -51 35 -96 35 -102 0 -5 -12 -12 -27 -16
-16 -3 -54 -20 -87 -36 -32 -17 -59 -29 -61 -27 -1 2 -32 53 -70 113 -37 61
-82 133 -100 160 -50 78 -134 214 -253 410 l-110 179 18 24 c32 40 43 87 30
127 -15 44 -47 67 -100 68 -22 1 -40 7 -40 13 0 6 14 30 30 52 26 36 30 51 30
104 0 35 -9 92 -20 126 -11 35 -20 88 -20 117 0 44 4 57 22 69 27 19 23 19 64
0z m-106 -144 c0 -17 -149 -150 -274 -245 -37 -28 -39 -29 -52 -10 -8 11 -13
22 -12 26 6 15 322 258 330 253 4 -3 8 -14 8 -24z m-95 -152 c-73 -237 -73
-237 -186 -294 -49 -24 -89 -42 -89 -39 0 3 11 22 24 43 13 21 40 70 59 109
28 54 52 84 107 132 70 60 93 73 85 49z m88 -14 c55 -19 58 -33 21 -88 -15
-21 -33 -50 -40 -64 -11 -22 -101 -69 -111 -58 -2 1 11 47 28 102 17 54 33
105 35 112 4 16 11 15 67 -4z m817 -560 c0 -2 -11 -4 -25 -4 -14 0 -37 -11
-50 -24 l-25 -25 -19 42 c-10 23 -64 140 -120 259 -55 120 -101 220 -101 224
0 3 15 23 33 44 l32 39 138 -275 c75 -152 137 -278 137 -280z m-1200 461 c0
-8 10 -24 21 -36 27 -27 47 -7 -255 -247 l-239 -191 -18 23 c-10 13 -30 27
-44 30 -24 6 -21 10 52 69 183 146 469 367 476 367 4 0 7 -7 7 -15z m910 -170
c40 -88 106 -233 146 -321 l75 -162 -23 -35 c-13 -20 -25 -36 -28 -37 -3 0
-70 158 -148 352 -130 323 -140 352 -124 364 9 7 20 10 23 6 3 -4 39 -79 79
-167z m-423 53 c29 -27 30 -79 3 -123 -12 -20 -97 -85 -227 -175 -115 -79
-307 -213 -428 -297 l-220 -152 -75 -135 c-70 -127 -100 -166 -86 -113 10 38
19 291 12 330 -10 55 -60 107 -102 107 -19 0 -34 2 -34 5 0 3 11 28 25 55 13
26 27 67 31 89 4 22 12 48 19 57 15 22 66 21 80 -1 30 -50 26 -50 121 -1 49
25 139 73 199 106 441 243 619 307 682 248z m-1127 -389 c0 -28 -55 -164 -82
-202 -19 -27 -22 -28 -28 -11 -4 10 -10 45 -14 76 -8 66 5 94 63 134 44 29 61
30 61 3z m1986 -173 c8 -14 14 -38 13 -53 -2 -18 10 -52 33 -93 20 -36 40 -73
43 -82 4 -10 15 -20 25 -23 24 -8 32 -30 20 -59 -7 -19 -21 -27 -60 -35 -70
-15 -70 -15 -70 25 0 24 -15 64 -44 117 -39 71 -44 87 -39 124 4 30 1 50 -10
67 -15 23 -15 25 1 29 45 12 72 6 88 -17z m-1944 -53 c30 -33 48 -82 48 -132
0 -48 -8 -56 -57 -56 -23 -1 -44 -3 -47 -6 -3 -2 -7 -81 -10 -174 -8 -235 -20
-453 -27 -459 -3 -3 -42 61 -87 142 l-82 148 14 50 c8 27 31 112 51 189 54
210 73 270 96 299 27 35 67 34 101 -1z m605 -25 c20 -44 63 -204 79 -293 11
-60 18 -176 21 -346 7 -337 11 -332 -207 -343 -69 -3 -171 -9 -226 -11 l-102
-6 -19 34 -20 34 28 109 c31 119 53 250 68 417 21 215 36 150 47 -192 l7 -224
176 7 c106 4 178 11 182 18 15 23 20 220 9 348 -11 136 -38 292 -63 365 -12
34 -19 41 -48 45 l-34 5 35 27 c43 34 54 35 67 6z m1243 -197 c23 -51 38 -97
33 -101 -4 -5 -21 -10 -36 -12 -28 -3 -30 0 -62 87 l-33 90 21 23 c11 12 24
19 28 15 4 -5 26 -50 49 -102z m-1828 -151 c2 -88 1 -160 -2 -160 -3 0 -15 -3
-27 -6 l-23 -6 0 166 0 166 25 0 24 0 3 -160z m158 -151 c-19 -118 -85 -397
-95 -408 -20 -19 -14 20 40 274 13 66 25 136 25 155 0 37 39 133 47 114 2 -7
-5 -67 -17 -135z m2268 95 c36 -67 45 -141 28 -218 -25 -106 -104 -251 -143
-261 -13 -3 -33 -25 -49 -55 -31 -57 -42 -61 -19 -8 12 31 13 37 0 42 -16 6
-44 -31 -65 -84 -7 -19 -17 -39 -22 -45 -5 -5 0 14 11 43 26 64 26 62 1 62
-16 0 -30 -22 -67 -100 -25 -55 -48 -99 -50 -97 -2 2 13 38 32 80 40 87 42 97
17 97 -14 0 -31 -26 -66 -100 -26 -55 -49 -100 -51 -100 -4 0 23 66 52 127 8
18 13 39 10 47 -3 8 7 32 23 53 46 63 98 160 114 214 25 83 -2 188 -69 268
-32 37 -37 35 115 60 159 27 170 25 198 -25z m-468 4 c64 -20 156 -98 146
-124 -3 -8 0 -13 5 -11 6 1 17 -18 25 -43 18 -59 17 -86 -2 -35 -24 65 -34 65
-34 -1 0 -44 -7 -73 -25 -110 -28 -57 -105 -138 -105 -111 0 9 -4 17 -10 17
-5 0 -10 4 -10 9 0 5 -18 41 -41 80 -22 39 -37 76 -33 82 4 7 3 9 -3 6 -11 -7
-53 62 -53 86 0 8 -4 17 -8 19 -16 6 -71 127 -62 133 38 24 138 25 210 3z
m-2550 -54 c118 -15 225 -30 236 -35 15 -5 51 -62 110 -171 48 -90 100 -184
115 -209 l27 -46 -97 -7 c-150 -9 -762 -7 -800 4 -30 8 -120 1 -306 -26 -22
-4 -62 -9 -90 -13 l-50 -6 2 -55 c3 -89 6 -112 13 -99 6 8 10 7 16 -3 5 -8 22
-23 37 -33 26 -17 50 -18 359 -12 182 4 333 9 336 12 9 8 -10 36 -39 57 -24
17 -76 32 -152 43 -45 7 -77 36 -77 69 0 21 6 24 53 30 28 3 103 6 165 6 106
0 114 -2 137 -24 26 -26 33 -55 37 -162 l4 -72 -261 -7 c-367 -10 -520 -5
-567 19 -21 10 -35 22 -32 27 3 5 -1 9 -9 9 -20 0 -53 51 -72 111 -9 32 -21
125 -27 225 -9 152 -8 174 6 202 23 45 60 65 116 66 26 1 46 4 44 7 -2 3 79
23 179 44 100 21 220 46 267 56 47 10 90 18 95 18 6 1 107 -11 225 -25z m2343
-82 c31 -59 73 -134 92 -167 19 -33 51 -91 71 -130 19 -38 43 -83 53 -100 19
-32 23 -65 9 -65 -5 0 -6 -4 -3 -10 3 -5 -1 -20 -9 -32 -8 -13 -17 -38 -21
-56 -4 -18 -11 -30 -15 -27 -5 3 -32 54 -61 113 -28 59 -56 116 -62 127 -65
118 -136 269 -131 277 4 6 2 8 -3 5 -9 -6 -63 99 -63 123 0 9 59 48 75 49 6 1
36 -47 68 -107z m-1732 -77 c4 -33 7 -113 8 -177 l1 -118 -45 0 c-65 0 -69 13
-61 194 5 98 11 153 19 158 7 5 26 7 42 6 29 -3 30 -5 36 -63z m20 -355 c44
-23 58 -39 74 -87 l13 -38 219 0 218 0 0 -30 0 -30 -185 -12 c-102 -6 -277
-19 -390 -27 -113 -9 -275 -16 -361 -16 l-156 0 -6 100 c-3 58 -11 112 -20
129 l-15 31 231 2 c284 4 332 1 378 -22z m415 -395 c33 -9 41 -14 24 -14 -14
-1 -83 -5 -155 -11 -351 -27 -400 -29 -406 -18 -4 6 -19 8 -35 4 -22 -5 -25
-4 -13 4 9 5 37 11 63 11 34 2 43 5 36 14 -13 16 27 21 175 24 60 1 112 5 115
8 8 8 142 -7 196 -22z m139 -75 c18 -20 16 -20 -246 -22 l-264 -3 3 -27 c1
-16 -2 -28 -8 -28 -5 0 -9 3 -9 8 3 19 -2 45 -7 39 -4 -3 -21 1 -38 10 -17 9
-26 18 -20 20 14 5 337 20 470 21 89 2 103 0 119 -18z m49 -76 c17 -43 14 -44
-161 -45 -93 -1 -213 -4 -267 -8 -99 -6 -100 -6 -107 -34 -4 -16 -4 -38 1 -50
5 -12 9 -17 9 -11 1 16 34 21 251 39 102 8 206 18 231 21 51 6 68 -10 49 -46
-8 -16 -25 -18 -137 -20 -71 -1 -194 -5 -276 -8 -96 -5 -147 -4 -147 3 -1 13
-32 -57 -33 -72 0 -7 -4 -13 -9 -13 -4 0 -8 -5 -8 -10 0 -6 11 -5 28 3 28 15
547 66 558 55 11 -12 -27 -68 -49 -72 -12 -3 -143 -7 -290 -10 -148 -3 -274
-9 -280 -13 -6 -4 -1 7 11 25 33 45 74 161 74 208 0 22 4 47 9 55 8 10 9 8 4
-8 -6 -21 -4 -22 67 -17 40 3 152 13 248 23 226 24 217 24 224 5z m-690 -14
c14 -5 26 -15 26 -22 0 -9 -3 -9 -12 0 -17 17 -24 15 -25 -8 -1 -13 4 -20 15
-20 24 0 44 -54 32 -86 -13 -32 -22 -31 -14 2 5 19 4 25 -5 20 -6 -4 -11 -18
-11 -32 0 -17 -5 -24 -20 -24 -11 0 -20 -5 -20 -11 0 -7 11 -9 29 -6 29 6 29
6 19 -23 -5 -16 -21 -40 -34 -52 -13 -13 -24 -27 -24 -33 0 -5 5 -3 10 5 5 8
10 11 10 7 0 -5 -12 -24 -26 -42 -28 -38 -25 -55 11 -55 13 0 27 -4 30 -10 3
-5 11 -10 16 -10 6 0 4 7 -5 15 -8 8 -20 15 -27 15 -8 0 -6 7 6 20 10 11 22
17 27 14 6 -4 5 -10 -3 -16 -10 -7 -8 -8 6 -3 22 7 161 22 495 50 36 3 74 8
85 12 16 4 15 0 -10 -27 -58 -61 -73 -65 -393 -80 -180 -9 -207 -8 -235 6 -25
14 -34 14 -51 4 l-21 -13 20 23 20 23 -25 -6 c-14 -3 -36 -8 -50 -12 -14 -3
-8 2 12 11 21 8 40 25 44 36 4 13 12 18 25 15 10 -3 22 -1 25 4 3 5 -10 9 -28
10 -31 1 -32 1 -8 9 25 8 25 8 2 9 -13 1 -21 5 -18 10 3 4 16 7 28 4 27 -4 56
12 44 24 -5 4 -11 2 -13 -4 -3 -7 -9 -13 -14 -13 -6 0 -8 4 -4 9 3 5 1 12 -5
16 -16 10 -11 28 6 21 12 -5 15 -2 9 11 -4 10 -10 37 -12 60 -5 34 -2 44 16
55 27 17 27 28 -1 29 -23 0 -23 0 -2 9 12 4 24 17 27 29 4 18 1 20 -27 16 -28
-4 -29 -4 -6 4 14 5 26 9 27 10 1 1 13 -3 27 -9z"/>
<path d="M8655 4180 c-3 -5 -4 -13 -1 -18 2 -4 16 -59 30 -122 14 -63 31 -132
37 -154 l11 -39 179 5 c98 3 182 8 185 11 10 9 -97 297 -110 297 -24 0 -253
20 -288 25 -20 3 -40 1 -43 -5z"/>
<path d="M8205 4134 c-77 -19 -151 -32 -165 -29 -17 4 -21 3 -12 -3 10 -7 3
-11 -25 -16 -89 -15 -93 -17 -93 -38 0 -17 4 -19 28 -13 25 6 253 47 332 59
61 10 -59 -20 -195 -49 -168 -34 -165 -34 -165 -52 0 -18 16 -17 208 17 68 12
126 20 128 17 2 -2 -69 -18 -158 -36 -90 -18 -167 -37 -172 -42 -6 -6 -6 -13
2 -21 8 -8 43 -5 142 12 72 12 133 20 135 18 3 -2 -55 -15 -128 -28 -72 -13
-138 -27 -144 -33 -27 -20 1 -29 76 -24 l76 6 -77 -15 c-67 -14 -78 -19 -78
-36 0 -19 4 -20 43 -15 111 15 143 15 57 -1 -74 -13 -96 -21 -98 -35 -3 -14 4
-17 35 -17 53 1 408 46 421 54 6 4 10 41 8 96 -1 49 0 87 4 85 3 -2 5 10 5 25
0 15 -3 26 -7 24 -4 -3 -5 8 -2 24 4 18 1 32 -5 37 -9 5 -9 10 0 21 15 18 4
44 -18 43 -10 0 -81 -16 -158 -35z"/>
</g>
</svg>
